<?xml version="1.0" encoding="UTF-8"?>
<svg width="59px" height="48px" viewBox="0 0 59 48" version="1.1" xmlns="http://www.w3.org/2000/svg" xmlns:xlink="http://www.w3.org/1999/xlink">
    <!-- Generator: Sketch 49.1 (51147) - http://www.bohemiancoding.com/sketch -->
    <title>EdwardsE</title>
    <desc>Created with Sketch.</desc>
    <defs>
        <polygon id="path-1" points="0.000178052126 0.106170903 58.7649172 0.106170903 58.7649172 47.7172597 0.000178052126 47.7172597"></polygon>
    </defs>
    <g id="*-Symbols" stroke="none" stroke-width="1" fill="none" fill-rule="evenodd">
        <g id="footer" transform="translate(-259.000000, -40.000000)">
            <g id="EdwardsE" transform="translate(259.000000, 40.000000)">
                <polygon id="Fill-1" fill="#FFFFFF" points="13.8823529 29.2173913 16.0126007 18.658778 43.7294118 12.5217391"></polygon>
                <g id="Group-4">
                    <mask id="mask-2" fill="white">
                        <use xlink:href="#path-1"></use>
                    </mask>
                    <g id="Clip-3"></g>
                    <path d="M4.29657586,47.7172597 C3.55825304,47.7172597 2.85850818,47.277068 2.55760009,46.5529586 C0.861950343,42.4462919 0.000178052126,38.1195294 0.000178052126,33.7003147 C0.000178052126,15.1764745 14.9992892,0.106170903 33.4300583,0.106170903 C42.8899677,0.106170903 51.9462924,4.16213798 58.2807935,11.2344323 C58.9787578,12.0110307 58.9134721,13.2063481 58.1413193,13.9065989 C57.3703536,14.6020779 56.1803719,14.5430278 55.4853751,13.7664294 C49.8607085,7.48803099 41.8246225,3.88776374 33.4300583,3.88776374 C17.0735964,3.88776374 3.76479351,17.2599293 3.76479351,33.7003147 C3.76479351,37.6214805 4.52745011,41.4603341 6.03436461,45.1041433 C6.43260786,46.0674355 5.97620091,47.1714936 5.01649995,47.5770903 C4.77909712,47.6725248 4.53397869,47.7172597 4.29657586,47.7172597 Z M29.9532937,25.8317386 L28.9585759,30.6529712 L50.7515626,30.6529712 C50.1711127,34.6636069 49.5259705,36.3355004 45.3672663,36.3355004 L27.7881799,36.3355004 L26.705623,41.5659085 L50.9658187,41.5659085 L49.7989837,47.25142 L25.6046673,47.25142 C20.7171364,47.25142 19.2226856,45.1649828 19.2226856,42.4594142 C19.2226856,41.7728821 19.341387,41.0994723 19.4600884,40.4678151 L21.9830871,28.2116369 L36.6979083,20.1480165 L55.306136,20.1480165 L54.1393011,25.8317386 L29.9532937,25.8317386 Z" id="Fill-2" fill="#FFFFFF" mask="url(#mask-2)"></path>
                </g>
            </g>
        </g>
    </g>
</svg>